<svg data-v-8a80dfd8="" data-v-3164ac5e="" xmlns="http://www.w3.org/2000/svg" fill="none" viewBox="0 0 264 38" class="logo"><g clip-path="url(#i709703233__a)"><path fill="#FF4123" d="M15.928.496h-4.711c0 6.173 1.556 10.07 1.96 11.116H0v4.711h15.667a21.6 21.6 0 0 0 2.174 2.686s-1.164 1.182-2.174 2.685H0v4.711h13.172c-.405 1.046-1.961 4.95-1.961 11.128h4.711c0-8.799 3.38-13.367 5.496-15.548a24.6 24.6 0 0 0 5.466 2.662c-3.678 2.53-5.567 7.301-5.567 12.886h4.711c0-6.6 2.466-11.128 11.015-11.128l-.006-4.711c-13.38 0-21.109-7.931-21.109-21.198"></path><path fill="#FF4123" d="M37.048 16.341v-4.729c-8.549 0-11.014-4.527-11.014-11.128l-4.712.018c0 10.427 5.674 15.84 15.726 15.84"></path><path fill="#414141" d="M60.979 11.32c-2.394 0-3.707.939-4.42 1.824v-1.539h-3.28v20.39h3.28v-7.129c.713.885 2.026 1.824 4.42 1.824 3.392 0 6.874-2.798 6.874-7.7 0-4.901-3.482-7.67-6.874-7.67m-.832 12.239c-1.568 0-2.822-.683-3.594-1.74v-5.621c.772-1.058 2.026-1.74 3.594-1.74 2.311 0 4.248 1.793 4.248 4.532 0 2.74-1.937 4.569-4.248 4.569M90.042 11.606h-3.909l-5.103 6.13v-6.13h-3.28v6.13l-5.073-6.13h-3.94l5.704 6.933-5.93 7.872h4.023l5.216-6.934v6.934h3.28v-6.934l5.246 6.934h3.992l-5.93-7.872zM106.186 11.606H95.118l-.398 4.218c-.315 3.481-.796 6.077-1.456 7.444h-1.598v6.844h3.196v-3.707h10.124v3.707h3.167v-6.838h-1.967zm-3.309 11.668H96.52c.51-1.224.885-3.34 1.14-6.102l.226-2.453h4.991zM117.045 17.195h-3.707v3.737h3.707zM133.218 21.99l-4.51-10.384h-4.503V26.41h3.19V15.628l4.736 10.783h2.109l4.764-10.783V26.41h3.197V11.605h-4.48zM152.527 11.352c-4.135 0-7.189 3.077-7.189 7.527 0 4.878 3.535 7.813 8.098 7.813 2.34 0 4.36-.826 5.59-2.311l-1.794-2.222c-.915.855-2.079 1.538-3.82 1.538-2.507 0-4.391-1.426-4.652-3.677h10.551v-1.51c0-4.247-2.679-7.158-6.784-7.158m-3.767 6.101c.172-1.598 1.396-3.25 3.707-3.25 1.967 0 3.363 1.313 3.506 3.25zM175.53 11.606h-11.068l-.399 4.218c-.314 3.481-.796 6.077-1.455 7.444h-1.598v6.844h3.196v-3.707h10.124v3.707h3.166v-6.838h-1.966zm-3.309 11.668h-6.357c.511-1.224.885-3.34 1.14-6.102l.226-2.453h4.991zM183.604 21.36v-9.754h-3.28V26.41h3.197l6.957-9.726v9.726h3.309V11.605h-3.197zM210.756 11.606h-3.28v11.668H201V11.605h-3.279v14.806h11.894v3.707h3.19v-6.844h-2.049zM218.901 21.36v-9.754h-3.28V26.41h3.196l6.957-9.726v9.726h3.31V11.605h-3.197zM242.997 17.309h-6.702v-5.704h-3.279v14.806h3.279v-5.965h6.702v5.965h3.279V11.605h-3.279zM260.72 11.606v1.568c-.683-.885-2.026-1.854-4.45-1.854-3.392 0-6.874 2.769-6.874 7.67 0 4.908 3.482 7.7 6.874 7.7 2.424 0 3.767-.968 4.45-1.854v1.569H264v-14.8zm0 10.153c-.742 1.081-2.055 1.794-3.624 1.794-2.311 0-4.248-1.824-4.248-4.563s1.937-4.533 4.248-4.533c1.569 0 2.882.713 3.624 1.794z"></path></g><defs><clipPath id="i709703233__a"><path fill="#fff" d="M0 .477h264v37.06H0z"></path></clipPath></defs></svg>